<svg xmlns="http://www.w3.org/2000/svg" viewBox="0 0 32 32">
  <rect width="32" height="32" rx="6" fill="#1a1a1a"/>
  <g transform="translate(4,3) scale(0.75)">
    <path d="M12 4c-1.5 2-3 5-4 8-1.5 4-2 7-2 10 2-2 4-5 6-9 1-2 2-4 2.5-6" fill="#BFA364" opacity="0.9"/>
    <path d="M14 2c0 3 0 6-0.5 9-0.5 4-1 7-1.5 10" stroke="#BFA364" stroke-width="1.2" fill="none"/>
    <path d="M16 4c1.5 2 3 5 4 8 1.5 4 2 7 2 10-2-2-4-5-6-9-1-2-2-4-2.5-6" fill="#2d3a2d" opacity="0.85"/>
    <circle cx="11" cy="3" r="1.5" fill="#BFA364"/>
    <circle cx="15" cy="2" r="1.3" fill="#BFA364" opacity="0.7"/>
    <circle cx="18" cy="3.5" r="1.2" fill="#2d3a2d" opacity="0.8"/>
  </g>
</svg>
